<?xml version="1.0" standalone="no"?>
<!DOCTYPE svg PUBLIC "-//W3C//DTD SVG 20010904//EN"
 "http://www.w3.org/TR/2001/REC-SVG-20010904/DTD/svg10.dtd">
<svg version="1.0" xmlns="http://www.w3.org/2000/svg"
 width="700.000000pt" height="700.000000pt" viewBox="0 0 700.000000 700.000000"
 preserveAspectRatio="xMidYMid meet">
<metadata>
Created by potrace 1.11, written by Peter Selinger 2001-2013
</metadata>
<g transform="translate(0.000000,700.000000) scale(0.100000,-0.100000)"
fill="#000000" stroke="none">
<path d="M3215 6989 c-754 -69 -1438 -356 -2000 -839 -126 -109 -344 -335
-448 -465 -372 -465 -624 -1034 -721 -1630 -33 -203 -40 -298 -40 -560 0 -222
4 -299 22 -433 118 -874 536 -1649 1197 -2220 624 -538 1450 -843 2284 -842
902 1 1779 361 2435 1000 575 561 929 1281 1033 2100 26 209 24 625 -5 838
-89 661 -333 1231 -754 1765 -103 130 -393 420 -525 524 -529 419 -1100 659
-1788 749 -135 18 -554 26 -690 13z m333 -1256 c103 -25 188 -47 190 -48 1 -1
-31 -138 -73 -303 -41 -166 -75 -305 -75 -309 0 -9 298 -79 304 -72 1 2 36
137 76 299 40 162 74 298 76 301 4 7 364 -79 376 -90 4 -3 -28 -146 -71 -317
l-78 -312 86 -32 c322 -121 540 -284 630 -472 47 -99 61 -161 61 -269 0 -162
-55 -338 -142 -454 -65 -85 -173 -162 -278 -197 l-73 -24 74 -44 c104 -62 228
-187 271 -275 51 -103 63 -156 63 -280 -1 -131 -20 -227 -77 -372 -174 -449
-534 -601 -1188 -502 -78 12 -144 19 -147 16 -3 -3 -40 -144 -82 -314 -66
-261 -80 -308 -95 -306 -18 1 -359 84 -364 88 -1 1 31 139 73 305 42 167 74
308 72 315 -5 10 -238 76 -281 79 -17 1 -28 -36 -95 -309 -42 -170 -81 -310
-86 -310 -10 0 -367 87 -373 91 -2 1 32 144 74 318 43 173 76 318 73 320 -3 3
-171 47 -375 97 -203 51 -373 96 -378 100 -6 6 163 420 178 436 1 1 54 -11
117 -28 222 -59 251 -58 307 5 26 30 49 113 247 911 166 670 216 887 212 917
-8 58 -49 114 -105 142 -27 14 -116 41 -199 62 l-150 37 50 201 c28 111 51
202 52 204 1 1 121 -27 266 -63 444 -110 504 -124 509 -115 3 4 38 146 79 314
41 168 76 306 78 306 2 0 88 -21 191 -47z"/>
<path d="M3390 4238 c-51 -205 -93 -377 -94 -382 -3 -20 302 -90 463 -107 310
-32 492 69 531 294 10 54 9 75 -4 128 -9 34 -26 77 -37 95 -57 92 -215 192
-399 253 -82 26 -336 91 -359 91 -5 0 -50 -168 -101 -372z"/>
<path d="M3090 3040 c-57 -230 -102 -421 -99 -425 9 -8 304 -81 409 -100 117
-21 366 -31 440 -17 93 17 166 50 220 99 114 102 150 273 86 409 -92 196 -355
322 -931 449 -19 4 -28 -24 -125 -415z"/>
</g>
</svg>
